{
	"asset":{
		"generator":"Khronos glTF Blender I/O v4.0.44",
		"version":"2.0"
	},
	"extensionsUsed":[
		"KHR_lights_punctual"
	],
	"extensionsRequired":[
		"KHR_lights_punctual"
	],
	"extensions":{
		"KHR_lights_punctual":{
			"lights":[
				{
					"color":[
						1,
						0.7785019874572754,
						0.47764065861701965
					],
					"intensity":54351.41306588226,
					"type":"point",
					"name":"Light"
				},
				{
					"color":[
						1,
						0.647632896900177,
						0.13907328248023987
					],
					"intensity":13625.899089749333,
					"type":"point",
					"name":"Point"
				}
			]
		}
	},
	"scene":0,
	"scenes":[
		{
			"name":"Scene",
			"nodes":[
				0,
				1,
				2
			]
		}
	],
	"nodes":[
		{
			"extensions":{
				"KHR_lights_punctual":{
					"light":0
				}
			},
			"name":"Light",
			"rotation":[
				-0.28416627645492554,
				0.7269423007965088,
				0.34203392267227173,
				0.5232754945755005
			],
			"translation":[
				-1.2073569297790527,
				7.117539405822754,
				-0.5735466480255127
			]
		},
		{
			"mesh":0,
			"name":"Cube",
			"rotation":[
				1,
				0,
				0,
				0
			],
			"scale":[
				-4.77668571472168,
				-0.09699051827192307,
				-1
			],
			"translation":[
				0.10055339336395264,
				3.0087153911590576,
				1.0515893697738647
			]
		},
		{
			"extensions":{
				"KHR_lights_punctual":{
					"light":1
				}
			},
			"name":"Point",
			"rotation":[
				-0.7071068286895752,
				0,
				0,
				0.7071068286895752
			],
			"translation":[
				-0.6522035598754883,
				7.579652786254883,
				10.474596977233887
			]
		}
	],
	"materials":[
		{
			"doubleSided":true,
			"name":"Material",
			"pbrMetallicRoughness":{
				"baseColorFactor":[
					0.7999995350837708,
					0.43251946568489075,
					0.16060343384742737,
					1
				],
				"metallicFactor":0,
				"roughnessFactor":0.5
			}
		},
		{
			"doubleSided":true,
			"name":"Material.001",
			"pbrMetallicRoughness":{
				"baseColorFactor":[
					0.31003904342651367,
					0,
					0.11070001125335693,
					1
				],
				"metallicFactor":0,
				"roughnessFactor":0.7772727012634277
			}
		},
		{
			"doubleSided":true,
			"name":"Material.002",
			"pbrMetallicRoughness":{
				"baseColorFactor":[
					0.6378610134124756,
					0.15191654860973358,
					0.00947088748216629,
					1
				],
				"metallicFactor":0,
				"roughnessFactor":0.5
			}
		}
	],
	"meshes":[
		{
			"name":"Cube.001",
			"primitives":[
				{
					"attributes":{
						"POSITION":0,
						"NORMAL":1,
						"TEXCOORD_0":2
					},
					"indices":3,
					"material":0
				},
				{
					"attributes":{
						"POSITION":4,
						"NORMAL":5,
						"TEXCOORD_0":6
					},
					"indices":7,
					"material":1
				},
				{
					"attributes":{
						"POSITION":8,
						"NORMAL":9,
						"TEXCOORD_0":10
					},
					"indices":11,
					"material":2
				}
			]
		}
	],
	"accessors":[
		{
			"bufferView":0,
			"componentType":5126,
			"count":205,
			"max":[
				2.7820420265197754,
				83.8831787109375,
				12.36319637298584
			],
			"min":[
				-1.0848217010498047,
				-31.020715713500977,
				-14.466374397277832
			],
			"type":"VEC3"
		},
		{
			"bufferView":1,
			"componentType":5126,
			"count":205,
			"type":"VEC3"
		},
		{
			"bufferView":2,
			"componentType":5126,
			"count":205,
			"type":"VEC2"
		},
		{
			"bufferView":3,
			"componentType":5123,
			"count":429,
			"type":"SCALAR"
		},
		{
			"bufferView":4,
			"componentType":5126,
			"count":28,
			"max":[
				2.7820420265197754,
				83.8831787109375,
				12.36319637298584
			],
			"min":[
				-1.0118296146392822,
				-31.020715713500977,
				-14.247994422912598
			],
			"type":"VEC3"
		},
		{
			"bufferView":5,
			"componentType":5126,
			"count":28,
			"type":"VEC3"
		},
		{
			"bufferView":6,
			"componentType":5126,
			"count":28,
			"type":"VEC2"
		},
		{
			"bufferView":7,
			"componentType":5123,
			"count":54,
			"type":"SCALAR"
		},
		{
			"bufferView":8,
			"componentType":5126,
			"count":7,
			"max":[
				2.720659017562866,
				-31.020715713500977,
				12.36319637298584
			],
			"min":[
				-1.0004284381866455,
				-31.020715713500977,
				-14.247994422912598
			],
			"type":"VEC3"
		},
		{
			"bufferView":9,
			"componentType":5126,
			"count":7,
			"type":"VEC3"
		},
		{
			"bufferView":10,
			"componentType":5126,
			"count":7,
			"type":"VEC2"
		},
		{
			"bufferView":11,
			"componentType":5123,
			"count":15,
			"type":"SCALAR"
		}
	],
	"bufferViews":[
		{
			"buffer":0,
			"byteLength":2460,
			"byteOffset":0,
			"target":34962
		},
		{
			"buffer":0,
			"byteLength":2460,
			"byteOffset":2460,
			"target":34962
		},
		{
			"buffer":0,
			"byteLength":1640,
			"byteOffset":4920,
			"target":34962
		},
		{
			"buffer":0,
			"byteLength":858,
			"byteOffset":6560,
			"target":34963
		},
		{
			"buffer":0,
			"byteLength":336,
			"byteOffset":7420,
			"target":34962
		},
		{
			"buffer":0,
			"byteLength":336,
			"byteOffset":7756,
			"target":34962
		},
		{
			"buffer":0,
			"byteLength":224,
			"byteOffset":8092,
			"target":34962
		},
		{
			"buffer":0,
			"byteLength":108,
			"byteOffset":8316,
			"target":34963
		},
		{
			"buffer":0,
			"byteLength":84,
			"byteOffset":8424,
			"target":34962
		},
		{
			"buffer":0,
			"byteLength":84,
			"byteOffset":8508,
			"target":34962
		},
		{
			"buffer":0,
			"byteLength":56,
			"byteOffset":8592,
			"target":34962
		},
		{
			"buffer":0,
			"byteLength":30,
			"byteOffset":8648,
			"target":34963
		}
	],
	"buffers":[
		{
			"byteLength":8680,
			"uri":"improvidence.bin"
		}
	]
}
